<svg width="27" height="31" viewBox="0 0 42 42" fill="none" xmlns="http://www.w3.org/2000/svg">
<path d="M30.7333 5.22034L30.7334 5.2206C32.2917 7.89516 31.6148 10.5872 30.4477 12.718C29.4119 14.6092 28.0419 15.9655 27.6318 16.3715C27.6025 16.4004 27.5781 16.4246 27.5591 16.4437C27.4238 16.5442 27.2562 16.5923 27.0876 16.5783C26.9103 16.5635 26.7455 16.4813 26.627 16.3486C26.5086 16.2159 26.4456 16.0429 26.451 15.8651C26.4564 15.6883 26.529 15.5202 26.654 15.3952C27.4263 14.6494 28.1139 13.8208 28.7044 12.9242L28.7208 12.8994L28.734 12.8728L28.7346 12.8716C28.7724 12.7962 29.0063 12.3283 29.0581 11.7501C29.1119 11.1483 28.9666 10.37 28.1681 9.84297L28.1589 9.83694L28.1495 9.83131C26.6103 8.90957 24.9066 8.29588 23.1332 8.02434C21.3901 7.65222 19.7444 7.40003 18.54 7.25551L17.9804 7.18836V7.75194V28.7861V28.7976L17.981 28.809C18.1352 32.1689 15.3542 35.8011 11.089 37.1729L11.0855 37.174C9.98737 37.5362 8.83857 37.7213 7.68225 37.7222L7.68225 37.7222L7.67672 37.7223C6.25798 37.7391 4.8579 37.3978 3.60609 36.73L3.60374 36.7287C2.891 36.3533 2.26322 35.8351 1.75953 35.2064C1.25651 34.5786 0.888008 33.854 0.676909 33.0778C-0.259156 29.4335 2.64091 25.1028 7.40627 23.5644L7.41308 23.5622L7.41983 23.5598C8.62205 23.1334 9.89817 22.9547 11.1713 23.0346C12.4405 23.1143 13.6805 23.4494 14.8171 24.0197C15.1293 24.1964 15.4265 24.3985 15.7056 24.6241L16.5199 25.2824V24.2353V0.532829L17.2951 0.582159C17.3225 0.584667 17.3545 0.587546 17.391 0.590825C18.1561 0.659547 20.8741 0.903709 23.7135 1.57502C25.2076 1.92825 26.7164 2.39556 27.9838 3.00798C29.2612 3.62524 30.2336 4.36159 30.7333 5.22034Z" fill="#19A7CE" stroke="#19A7CE"/>
</svg>
