<svg width="46" height="46" viewBox="0 0 46 46" fill="none" xmlns="http://www.w3.org/2000/svg">
<path d="M30.8636 16.7273C30.8636 18.8128 30.0351 20.813 28.5604 22.2877C27.0857 23.7624 25.0855 24.5909 23 24.5909C20.9144 24.5909 18.9142 23.7624 17.4395 22.2877C15.9648 20.813 15.1363 18.8128 15.1363 16.7273C15.1363 14.6417 15.9648 12.6416 17.4395 11.1669C18.9142 9.69213 20.9144 8.86365 23 8.86365C25.0855 8.86365 27.0857 9.69213 28.5604 11.1669C30.0351 12.6416 30.8636 14.6417 30.8636 16.7273ZM26.3105 20.0378C27.1885 19.1598 27.6818 17.969 27.6818 16.7273C27.6818 15.4856 27.1885 14.2947 26.3105 13.4167C25.4325 12.5387 24.2417 12.0455 23 12.0455C21.7583 12.0455 20.5674 12.5387 19.6894 13.4167C18.8114 14.2947 18.3181 15.4856 18.3181 16.7273C18.3181 17.969 18.8114 19.1598 19.6894 20.0378C20.5674 20.9158 21.7583 21.4091 23 21.4091C24.2417 21.4091 25.4325 20.9158 26.3105 20.0378Z" fill="#19A7CE" stroke="#19A7CE"/>
<path d="M23.1359 30.8636C20.7007 30.862 18.3011 31.4485 16.1413 32.5734C13.9813 33.6984 12.1251 35.3285 10.7305 37.3249L10.4645 37.7058L10.8247 37.999C14.2641 40.7989 18.5651 42.3247 23 42.3182C27.5134 42.3243 31.8853 40.7439 35.3513 37.8531L35.7081 37.5556L35.4376 37.1779C34.0371 35.2228 32.1904 33.63 30.0508 32.5318C27.9113 31.4336 25.5407 30.8618 23.1359 30.8636ZM23.1359 30.8636C23.1357 30.8636 23.1356 30.8636 23.1355 30.8636L23.1359 31.3636L23.1363 30.8636C23.1361 30.8636 23.136 30.8636 23.1359 30.8636ZM3.68182 22.9999V23C3.68182 27.4857 5.21253 31.6162 7.77742 34.8958L8.17655 35.4062L8.56907 34.8907C10.2771 32.6477 12.4806 30.8299 15.0075 29.5793C17.5343 28.3288 20.3161 27.6794 23.1355 27.6818H23.1364C25.9192 27.6792 28.666 28.3118 31.1674 29.5314C33.6687 30.7511 35.8587 32.5256 37.5704 34.7197L37.9692 35.2309L38.3622 34.7153C40.222 32.2761 41.4743 29.4291 42.0153 26.4098C42.5563 23.3905 42.3706 20.2858 41.4735 17.3526C40.5765 14.4193 38.9938 11.7418 36.8565 9.54168C34.7192 7.34153 32.0887 5.68196 29.1826 4.70027C26.2766 3.71858 23.1786 3.44301 20.1449 3.89634C17.1112 4.34968 14.2291 5.5189 11.737 7.30725C9.24491 9.0956 7.21449 11.4517 5.81375 14.1805C4.41301 16.9094 3.68221 19.9326 3.68182 22.9999ZM0.5 23C0.5 10.5739 10.5739 0.5 23 0.5C35.4261 0.5 45.5 10.5739 45.5 23C45.5 35.4261 35.4261 45.5 23 45.5C10.5739 45.5 0.5 35.4261 0.5 23Z" fill="#19A7CE" stroke="#19A7CE"/>
</svg>
