<svg width="32" height="30" viewBox="0 0 34 30" fill="none" xmlns="http://www.w3.org/2000/svg">
<g clip-path="url(#clip0_169_22)">
<path d="M21.3334 10C19.8667 10 18.6111 9.51042 17.5667 8.53125C16.5222 7.55208 16 6.375 16 5C16 3.625 16.5222 2.44792 17.5667 1.46875C18.6111 0.489584 19.8667 0 21.3334 0C22.8 0 24.0556 0.489584 25.1 1.46875C26.1445 2.44792 26.6667 3.625 26.6667 5C26.6667 6.375 26.1445 7.55208 25.1 8.53125C24.0556 9.51042 22.8 10 21.3334 10ZM10.6667 20V16.5C10.6667 15.7917 10.8614 15.1404 11.2507 14.5463C11.64 13.9521 12.1565 13.4992 12.8 13.1875C14.1778 12.5417 15.5778 12.0571 17 11.7338C18.4222 11.4104 19.8667 11.2492 21.3334 11.25C22.8 11.25 24.2445 11.4117 25.6667 11.735C27.0889 12.0583 28.4889 12.5425 29.8667 13.1875C30.5111 13.5 31.028 13.9533 31.4174 14.5475C31.8067 15.1417 32.0009 15.7925 32 16.5V20H10.6667ZM13.3334 17.5H29.3334V16.5C29.3334 16.2708 29.272 16.0625 29.1494 15.875C29.0267 15.6875 28.8658 15.5417 28.6667 15.4375C27.4667 14.875 26.2556 14.4533 25.0334 14.1725C23.8111 13.8917 22.5778 13.7508 21.3334 13.75C20.0889 13.75 18.8556 13.8908 17.6334 14.1725C16.4111 14.4542 15.2 14.8758 14 15.4375C13.8 15.5417 13.6387 15.6875 13.516 15.875C13.3934 16.0625 13.3325 16.2708 13.3334 16.5V17.5ZM21.3334 7.5C22.0667 7.5 22.6947 7.255 23.2174 6.765C23.74 6.275 24.0009 5.68667 24 5C24 4.3125 23.7387 3.72375 23.216 3.23375C22.6934 2.74375 22.0658 2.49917 21.3334 2.5C20.6 2.5 19.972 2.745 19.4494 3.235C18.9267 3.725 18.6658 4.31333 18.6667 5C18.6667 5.6875 18.928 6.27625 19.4507 6.76625C19.9734 7.25625 20.6009 7.50083 21.3334 7.5Z" fill="#F6F1F1"/>
</g>
<defs>
<clipPath id="clip0_169_22">
<rect width="32" height="30" fill="white"/>
</clipPath>
</defs>
</svg>
